<mxfile host="app.diagrams.net" agent="Mozilla/5.0 (Macintosh; Intel Mac OS X 10_15_7) AppleWebKit/605.1.15 (KHTML, like Gecko) Version/17.6 Safari/605.1.15" version="24.7.7">
  <diagram id="C5RBs43oDa-KdzZeNtuy" name="Page-1">
    <mxGraphModel dx="795" dy="606" grid="1" gridSize="10" guides="1" tooltips="1" connect="1" arrows="1" fold="1" page="1" pageScale="1" pageWidth="827" pageHeight="1169" math="0" shadow="0">
      <root>
        <mxCell id="WIyWlLk6GJQsqaUBKTNV-0" />
        <mxCell id="WIyWlLk6GJQsqaUBKTNV-1" parent="WIyWlLk6GJQsqaUBKTNV-0" />
        <mxCell id="WIyWlLk6GJQsqaUBKTNV-3" value="Sudoku Solved" style="rounded=1;whiteSpace=wrap;html=1;fontSize=12;glass=0;strokeWidth=1;shadow=0;" parent="WIyWlLk6GJQsqaUBKTNV-1" vertex="1">
          <mxGeometry x="354" y="190" width="120" height="40" as="geometry" />
        </mxCell>
        <mxCell id="9dmFRU9AnI4MJ1eLmPNE-2" value="" style="edgeStyle=orthogonalEdgeStyle;rounded=0;orthogonalLoop=1;jettySize=auto;html=1;" edge="1" parent="WIyWlLk6GJQsqaUBKTNV-1" target="9dmFRU9AnI4MJ1eLmPNE-1">
          <mxGeometry relative="1" as="geometry">
            <mxPoint x="210" y="240" as="sourcePoint" />
            <Array as="points">
              <mxPoint x="210" y="250" />
              <mxPoint x="210" y="250" />
            </Array>
          </mxGeometry>
        </mxCell>
        <mxCell id="9dmFRU9AnI4MJ1eLmPNE-20" value="YES" style="edgeLabel;html=1;align=center;verticalAlign=middle;resizable=0;points=[];" vertex="1" connectable="0" parent="9dmFRU9AnI4MJ1eLmPNE-2">
          <mxGeometry x="-0.1733" y="-1" relative="1" as="geometry">
            <mxPoint as="offset" />
          </mxGeometry>
        </mxCell>
        <mxCell id="9dmFRU9AnI4MJ1eLmPNE-22" style="edgeStyle=orthogonalEdgeStyle;rounded=0;orthogonalLoop=1;jettySize=auto;html=1;exitX=1;exitY=0.5;exitDx=0;exitDy=0;" edge="1" parent="WIyWlLk6GJQsqaUBKTNV-1" source="9dmFRU9AnI4MJ1eLmPNE-0" target="WIyWlLk6GJQsqaUBKTNV-3">
          <mxGeometry relative="1" as="geometry" />
        </mxCell>
        <mxCell id="9dmFRU9AnI4MJ1eLmPNE-23" value="NO" style="edgeLabel;html=1;align=center;verticalAlign=middle;resizable=0;points=[];" vertex="1" connectable="0" parent="9dmFRU9AnI4MJ1eLmPNE-22">
          <mxGeometry x="0.0278" relative="1" as="geometry">
            <mxPoint as="offset" />
          </mxGeometry>
        </mxCell>
        <mxCell id="9dmFRU9AnI4MJ1eLmPNE-0" value="While there&amp;nbsp;&lt;div&gt;are empty cells&lt;/div&gt;" style="shape=parallelogram;perimeter=parallelogramPerimeter;whiteSpace=wrap;html=1;fixedSize=1;" vertex="1" parent="WIyWlLk6GJQsqaUBKTNV-1">
          <mxGeometry x="160" y="180" width="120" height="60" as="geometry" />
        </mxCell>
        <mxCell id="9dmFRU9AnI4MJ1eLmPNE-4" value="" style="edgeStyle=orthogonalEdgeStyle;rounded=0;orthogonalLoop=1;jettySize=auto;html=1;" edge="1" parent="WIyWlLk6GJQsqaUBKTNV-1" source="9dmFRU9AnI4MJ1eLmPNE-1" target="9dmFRU9AnI4MJ1eLmPNE-3">
          <mxGeometry relative="1" as="geometry" />
        </mxCell>
        <mxCell id="9dmFRU9AnI4MJ1eLmPNE-9" value="" style="edgeStyle=orthogonalEdgeStyle;rounded=0;orthogonalLoop=1;jettySize=auto;html=1;" edge="1" parent="WIyWlLk6GJQsqaUBKTNV-1" source="9dmFRU9AnI4MJ1eLmPNE-1" target="9dmFRU9AnI4MJ1eLmPNE-8">
          <mxGeometry relative="1" as="geometry" />
        </mxCell>
        <mxCell id="9dmFRU9AnI4MJ1eLmPNE-1" value="Loop through&lt;div&gt;all possible&lt;/div&gt;&lt;div&gt;values&lt;/div&gt;" style="shape=parallelogram;perimeter=parallelogramPerimeter;whiteSpace=wrap;html=1;fixedSize=1;" vertex="1" parent="WIyWlLk6GJQsqaUBKTNV-1">
          <mxGeometry x="150" y="290" width="120" height="60" as="geometry" />
        </mxCell>
        <mxCell id="9dmFRU9AnI4MJ1eLmPNE-6" value="" style="edgeStyle=orthogonalEdgeStyle;rounded=0;orthogonalLoop=1;jettySize=auto;html=1;" edge="1" parent="WIyWlLk6GJQsqaUBKTNV-1" source="9dmFRU9AnI4MJ1eLmPNE-3" target="9dmFRU9AnI4MJ1eLmPNE-5">
          <mxGeometry relative="1" as="geometry" />
        </mxCell>
        <mxCell id="9dmFRU9AnI4MJ1eLmPNE-3" value="Apply Sudoku&lt;div&gt;Rules&lt;/div&gt;" style="ellipse;whiteSpace=wrap;html=1;" vertex="1" parent="WIyWlLk6GJQsqaUBKTNV-1">
          <mxGeometry x="170" y="390" width="80" height="80" as="geometry" />
        </mxCell>
        <mxCell id="9dmFRU9AnI4MJ1eLmPNE-7" value="backtrack and try different value" style="edgeStyle=orthogonalEdgeStyle;rounded=0;orthogonalLoop=1;jettySize=auto;html=1;" edge="1" parent="WIyWlLk6GJQsqaUBKTNV-1" source="9dmFRU9AnI4MJ1eLmPNE-5" target="9dmFRU9AnI4MJ1eLmPNE-1">
          <mxGeometry relative="1" as="geometry">
            <mxPoint x="140" y="310.0000000000001" as="targetPoint" />
            <Array as="points">
              <mxPoint x="340" y="545" />
              <mxPoint x="340" y="320" />
            </Array>
          </mxGeometry>
        </mxCell>
        <mxCell id="9dmFRU9AnI4MJ1eLmPNE-16" value="YES" style="edgeLabel;html=1;align=center;verticalAlign=middle;resizable=0;points=[];" vertex="1" connectable="0" parent="9dmFRU9AnI4MJ1eLmPNE-7">
          <mxGeometry x="-0.7722" relative="1" as="geometry">
            <mxPoint as="offset" />
          </mxGeometry>
        </mxCell>
        <mxCell id="9dmFRU9AnI4MJ1eLmPNE-17" style="edgeStyle=orthogonalEdgeStyle;rounded=0;orthogonalLoop=1;jettySize=auto;html=1;" edge="1" parent="WIyWlLk6GJQsqaUBKTNV-1" source="9dmFRU9AnI4MJ1eLmPNE-5" target="9dmFRU9AnI4MJ1eLmPNE-0">
          <mxGeometry relative="1" as="geometry">
            <Array as="points">
              <mxPoint x="30" y="545" />
              <mxPoint x="30" y="30" />
              <mxPoint x="240" y="30" />
            </Array>
          </mxGeometry>
        </mxCell>
        <mxCell id="9dmFRU9AnI4MJ1eLmPNE-19" value="NO" style="edgeLabel;html=1;align=center;verticalAlign=middle;resizable=0;points=[];" vertex="1" connectable="0" parent="9dmFRU9AnI4MJ1eLmPNE-17">
          <mxGeometry x="-0.8801" y="2" relative="1" as="geometry">
            <mxPoint as="offset" />
          </mxGeometry>
        </mxCell>
        <mxCell id="9dmFRU9AnI4MJ1eLmPNE-5" value="if stuck" style="rhombus;whiteSpace=wrap;html=1;" vertex="1" parent="WIyWlLk6GJQsqaUBKTNV-1">
          <mxGeometry x="170" y="505" width="80" height="80" as="geometry" />
        </mxCell>
        <mxCell id="9dmFRU9AnI4MJ1eLmPNE-10" style="edgeStyle=orthogonalEdgeStyle;rounded=0;orthogonalLoop=1;jettySize=auto;html=1;entryX=0.5;entryY=0;entryDx=0;entryDy=0;" edge="1" parent="WIyWlLk6GJQsqaUBKTNV-1" source="9dmFRU9AnI4MJ1eLmPNE-8" target="9dmFRU9AnI4MJ1eLmPNE-0">
          <mxGeometry relative="1" as="geometry">
            <mxPoint x="90" y="120" as="targetPoint" />
            <Array as="points">
              <mxPoint x="90" y="110" />
              <mxPoint x="220" y="110" />
            </Array>
          </mxGeometry>
        </mxCell>
        <mxCell id="9dmFRU9AnI4MJ1eLmPNE-12" value="backtrack my prev cell" style="edgeLabel;html=1;align=center;verticalAlign=middle;resizable=0;points=[];" vertex="1" connectable="0" parent="9dmFRU9AnI4MJ1eLmPNE-10">
          <mxGeometry x="0.2949" y="-1" relative="1" as="geometry">
            <mxPoint as="offset" />
          </mxGeometry>
        </mxCell>
        <mxCell id="9dmFRU9AnI4MJ1eLmPNE-13" value="YES" style="edgeLabel;html=1;align=center;verticalAlign=middle;resizable=0;points=[];" vertex="1" connectable="0" parent="9dmFRU9AnI4MJ1eLmPNE-10">
          <mxGeometry x="-0.6658" y="-1" relative="1" as="geometry">
            <mxPoint as="offset" />
          </mxGeometry>
        </mxCell>
        <mxCell id="9dmFRU9AnI4MJ1eLmPNE-14" style="edgeStyle=orthogonalEdgeStyle;rounded=0;orthogonalLoop=1;jettySize=auto;html=1;entryX=0;entryY=0.5;entryDx=0;entryDy=0;" edge="1" parent="WIyWlLk6GJQsqaUBKTNV-1" source="9dmFRU9AnI4MJ1eLmPNE-8" target="9dmFRU9AnI4MJ1eLmPNE-3">
          <mxGeometry relative="1" as="geometry">
            <Array as="points">
              <mxPoint x="90" y="430" />
            </Array>
          </mxGeometry>
        </mxCell>
        <mxCell id="9dmFRU9AnI4MJ1eLmPNE-15" value="NO" style="edgeLabel;html=1;align=center;verticalAlign=middle;resizable=0;points=[];" vertex="1" connectable="0" parent="9dmFRU9AnI4MJ1eLmPNE-14">
          <mxGeometry x="-0.6022" y="2" relative="1" as="geometry">
            <mxPoint as="offset" />
          </mxGeometry>
        </mxCell>
        <mxCell id="9dmFRU9AnI4MJ1eLmPNE-8" value="if stuck&lt;div&gt;after end&lt;/div&gt;" style="rhombus;whiteSpace=wrap;html=1;" vertex="1" parent="WIyWlLk6GJQsqaUBKTNV-1">
          <mxGeometry x="50" y="280" width="80" height="80" as="geometry" />
        </mxCell>
      </root>
    </mxGraphModel>
  </diagram>
</mxfile>
